<?xml version="1.0" encoding="UTF-8"?>
<svg xmlns="http://www.w3.org/2000/svg" viewBox="0 0 24 24" width="24" height="24">
  <g id="source-bounds" display="none" aria-hidden="true">
    <rect x="0" y="0" width="24" height="24" fill="none" stroke="#f00" stroke-width="0.05"/>
  </g>

  <g id="construction" display="none" aria-hidden="true" fill="none" stroke="#0a0" stroke-width="0.05">
    <line x1="12" y1="0" x2="12" y2="24" stroke="#00f"/>
    <rect x="11.72" y="0.95" width="0.56" height="2.05" rx="0.28"/>
    <path d="M 9.30 3.12 L 10.58 2.75 L 13.42 2.75 L 14.70 3.12 L 14.70 4.02 L 13.42 3.82 L 10.58 3.82 L 9.30 4.02 Z"/>
    <path d="M 3.15 6.02 C 4.30 4.98 6.42 4.18 9.20 3.82 L 14.80 3.82 C 17.58 4.18 19.70 4.98 20.85 6.02 L 20.85 6.95 C 20.38 7.45 19.72 7.78 18.90 8.00 C 16.62 7.58 14.30 7.37 12.00 7.37 C 9.70 7.37 7.38 7.58 5.10 8.00 C 4.28 7.78 3.62 7.45 3.15 6.95 Z"/>
    <path d="M 5.10 8.00 C 7.38 7.58 9.70 7.37 12.00 7.37 C 14.30 7.37 16.62 7.58 18.90 8.00 L 18.55 9.48 L 18.20 11.02 C 16.15 10.70 14.08 10.54 12.00 10.54 C 9.92 10.54 7.85 10.70 5.80 11.02 L 5.45 9.48 Z"/>
    <path d="M 4.95 11.30 C 7.15 10.90 9.50 10.70 12.00 10.70 C 14.50 10.70 16.85 10.90 19.05 11.30 L 19.05 13.06 C 18.86 13.60 18.36 13.97 17.55 14.20 C 15.75 14.45 13.90 14.58 12.00 14.58 C 10.10 14.58 8.25 14.45 6.45 14.20 C 5.64 13.97 5.14 13.60 4.95 13.06 Z"/>
    <path d="M 6.20 14.44 C 8.00 14.72 9.92 14.86 12.00 14.86 C 14.08 14.86 16.00 14.72 17.80 14.44 L 16.92 15.18 L 15.10 15.18 L 12.00 15.70 L 8.90 15.18 L 7.08 15.18 Z"/>
    <path d="M 6.20 23.05 L 7.08 15.18 L 8.90 15.18 L 8.30 23.05 Z"/>
    <path d="M 8.30 23.05 L 8.90 15.18 L 12.00 15.70 L 12.00 23.05 Z"/>
    <path d="M 12.00 15.70 L 15.10 15.18 L 15.70 23.05 L 12.00 23.05 Z"/>
    <path d="M 15.10 15.18 L 16.92 15.18 L 17.80 23.05 L 15.70 23.05 Z"/>
  </g>

  <g id="top-cap" display="none" aria-hidden="true">
    <path d="M 9.30 3.12 L 10.58 2.75 L 13.42 2.75 L 14.70 3.12 L 14.70 4.02 L 13.42 3.82 L 10.58 3.82 L 9.30 4.02 Z"/>
  </g>

  <g id="observation-deck" display="none" aria-hidden="true">
    <path id="roof-ring-ref" d="M 3.15 6.02 C 4.30 4.98 6.42 4.18 9.20 3.82 L 14.80 3.82 C 17.58 4.18 19.70 4.98 20.85 6.02 L 20.85 6.95 C 20.38 7.45 19.72 7.78 18.90 8.00 C 16.62 7.58 14.30 7.37 12.00 7.37 C 9.70 7.37 7.38 7.58 5.10 8.00 C 4.28 7.78 3.62 7.45 3.15 6.95 Z"/>
    <path id="window-band-ref" d="M 5.10 8.00 C 7.38 7.58 9.70 7.37 12.00 7.37 C 14.30 7.37 16.62 7.58 18.90 8.00 L 18.55 9.48 L 18.20 11.02 C 16.15 10.70 14.08 10.54 12.00 10.54 C 9.92 10.54 7.85 10.70 5.80 11.02 L 5.45 9.48 Z"/>
  </g>

  <g id="window-band-cutouts" display="none" aria-hidden="true">
    <path id="window-cutout-left-outer" d="M 5.62 8.38 L 6.20 8.20 L 6.86 10.90 L 6.28 11.02 Z"/>
    <path id="window-cutout-left-mid" d="M 6.98 8.08 L 7.82 8.08 L 8.30 10.86 L 7.56 10.86 Z"/>
    <path id="window-cutout-left-main" d="M 8.96 7.84 L 10.46 7.84 L 10.46 10.82 L 9.18 10.82 Z"/>
    <path id="window-cutout-right-main" d="M 13.54 7.84 L 15.04 7.84 L 14.82 10.82 L 13.54 10.82 Z"/>
    <path id="window-cutout-right-mid" d="M 16.18 8.08 L 17.02 8.08 L 16.44 10.86 L 15.70 10.86 Z"/>
    <path id="window-cutout-right-outer" d="M 17.80 8.20 L 18.38 8.38 L 17.72 11.02 L 17.14 10.90 Z"/>
  </g>

  <g id="middle-ring" display="none" aria-hidden="true">
    <path id="middle-ring-face-ref" d="M 4.95 11.30 C 7.15 10.90 9.50 10.70 12.00 10.70 C 14.50 10.70 16.85 10.90 19.05 11.30 L 19.05 13.06 C 18.86 13.60 18.36 13.97 17.55 14.20 C 15.75 14.45 13.90 14.58 12.00 14.58 C 10.10 14.58 8.25 14.45 6.45 14.20 C 5.64 13.97 5.14 13.60 4.95 13.06 Z"/>
    <path id="middle-under-ref" d="M 6.20 14.44 C 8.00 14.72 9.92 14.86 12.00 14.86 C 14.08 14.86 16.00 14.72 17.80 14.44 L 16.92 15.18 L 15.10 15.18 L 12.00 15.70 L 8.90 15.18 L 7.08 15.18 Z"/>
  </g>

  <g id="tower" display="none" aria-hidden="true">
    <path id="tower-panel-left-highlight-ref" d="M 6.20 23.05 L 7.08 15.18 L 8.90 15.18 L 8.30 23.05 Z"/>
    <path id="tower-panel-left-main-ref" d="M 8.30 23.05 L 8.90 15.18 L 12.00 15.70 L 12.00 23.05 Z"/>
    <path id="tower-panel-right-main-ref" d="M 12.00 15.70 L 15.10 15.18 L 15.70 23.05 L 12.00 23.05 Z"/>
    <path id="tower-panel-right-edge-ref" d="M 15.10 15.18 L 16.92 15.18 L 17.80 23.05 L 15.70 23.05 Z"/>
  </g>

  <g id="lighthouse-body" display="none" aria-hidden="true">
    <rect x="11.72" y="0.95" width="0.56" height="2.05" rx="0.28"/>
    <path d="M 9.30 3.12 L 10.58 2.75 L 13.42 2.75 L 14.70 3.12 L 14.70 4.02 L 13.42 3.82 L 10.58 3.82 L 9.30 4.02 Z"/>
    <path d="M 3.15 6.02 C 4.30 4.98 6.42 4.18 9.20 3.82 L 14.80 3.82 C 17.58 4.18 19.70 4.98 20.85 6.02 L 20.85 6.95 C 20.38 7.45 19.72 7.78 18.90 8.00 C 16.62 7.58 14.30 7.37 12.00 7.37 C 9.70 7.37 7.38 7.58 5.10 8.00 C 4.28 7.78 3.62 7.45 3.15 6.95 Z"/>
    <path d="M 5.10 8.00 C 7.38 7.58 9.70 7.37 12.00 7.37 C 14.30 7.37 16.62 7.58 18.90 8.00 L 18.55 9.48 L 18.20 11.02 C 16.15 10.70 14.08 10.54 12.00 10.54 C 9.92 10.54 7.85 10.70 5.80 11.02 L 5.45 9.48 Z M 5.62 8.38 L 6.20 8.20 L 6.86 10.90 L 6.28 11.02 Z M 6.98 8.08 L 7.82 8.08 L 8.30 10.86 L 7.56 10.86 Z M 8.96 7.84 L 10.46 7.84 L 10.46 10.82 L 9.18 10.82 Z M 13.54 7.84 L 15.04 7.84 L 14.82 10.82 L 13.54 10.82 Z M 16.18 8.08 L 17.02 8.08 L 16.44 10.86 L 15.70 10.86 Z M 17.80 8.20 L 18.38 8.38 L 17.72 11.02 L 17.14 10.90 Z" fill-rule="evenodd"/>
    <path d="M 4.95 11.30 C 7.15 10.90 9.50 10.70 12.00 10.70 C 14.50 10.70 16.85 10.90 19.05 11.30 L 19.05 13.06 C 18.86 13.60 18.36 13.97 17.55 14.20 C 15.75 14.45 13.90 14.58 12.00 14.58 C 10.10 14.58 8.25 14.45 6.45 14.20 C 5.64 13.97 5.14 13.60 4.95 13.06 Z"/>
    <path d="M 6.20 14.44 C 8.00 14.72 9.92 14.86 12.00 14.86 C 14.08 14.86 16.00 14.72 17.80 14.44 L 16.92 15.18 L 15.10 15.18 L 12.00 15.70 L 8.90 15.18 L 7.08 15.18 Z"/>
    <path d="M 6.20 23.05 L 7.08 15.18 L 8.90 15.18 L 8.30 23.05 Z"/>
    <path d="M 8.30 23.05 L 8.90 15.18 L 12.00 15.70 L 12.00 23.05 Z"/>
    <path d="M 12.00 15.70 L 15.10 15.18 L 15.70 23.05 L 12.00 23.05 Z"/>
    <path d="M 15.10 15.18 L 16.92 15.18 L 17.80 23.05 L 15.70 23.05 Z"/>
  </g>

  <g id="menu-bar-template-shape" fill="currentColor">
    <rect x="11.72" y="0.95" width="0.56" height="2.05" rx="0.28"/>
    <path d="M 9.30 3.12 L 10.58 2.75 L 13.42 2.75 L 14.70 3.12 L 14.70 4.02 L 13.42 3.82 L 10.58 3.82 L 9.30 4.02 Z" opacity="0.88"/>
    <path d="M 3.15 6.02 C 4.30 4.98 6.42 4.18 9.20 3.82 L 14.80 3.82 C 17.58 4.18 19.70 4.98 20.85 6.02 L 20.85 6.95 C 20.38 7.45 19.72 7.78 18.90 8.00 C 16.62 7.58 14.30 7.37 12.00 7.37 C 9.70 7.37 7.38 7.58 5.10 8.00 C 4.28 7.78 3.62 7.45 3.15 6.95 Z"/>
    <path d="M 5.10 8.00 C 7.38 7.58 9.70 7.37 12.00 7.37 C 14.30 7.37 16.62 7.58 18.90 8.00 L 18.55 9.48 L 18.20 11.02 C 16.15 10.70 14.08 10.54 12.00 10.54 C 9.92 10.54 7.85 10.70 5.80 11.02 L 5.45 9.48 Z M 5.62 8.38 L 6.20 8.20 L 6.86 10.90 L 6.28 11.02 Z M 6.98 8.08 L 7.82 8.08 L 8.30 10.86 L 7.56 10.86 Z M 8.96 7.84 L 10.46 7.84 L 10.46 10.82 L 9.18 10.82 Z M 13.54 7.84 L 15.04 7.84 L 14.82 10.82 L 13.54 10.82 Z M 16.18 8.08 L 17.02 8.08 L 16.44 10.86 L 15.70 10.86 Z M 17.80 8.20 L 18.38 8.38 L 17.72 11.02 L 17.14 10.90 Z" fill-rule="evenodd"/>
    <path d="M 4.95 11.30 C 7.15 10.90 9.50 10.70 12.00 10.70 C 14.50 10.70 16.85 10.90 19.05 11.30 L 19.05 13.06 C 18.86 13.60 18.36 13.97 17.55 14.20 C 15.75 14.45 13.90 14.58 12.00 14.58 C 10.10 14.58 8.25 14.45 6.45 14.20 C 5.64 13.97 5.14 13.60 4.95 13.06 Z"/>
    <path d="M 6.20 14.44 C 8.00 14.72 9.92 14.86 12.00 14.86 C 14.08 14.86 16.00 14.72 17.80 14.44 L 16.92 15.18 L 15.10 15.18 L 12.00 15.70 L 8.90 15.18 L 7.08 15.18 Z"/>
    <path d="M 6.20 23.05 L 7.08 15.18 L 8.90 15.18 L 8.30 23.05 Z" opacity="0.58"/>
    <path d="M 8.30 23.05 L 8.90 15.18 L 12.00 15.70 L 12.00 23.05 Z" opacity="0.73"/>
    <path d="M 12.00 15.70 L 15.10 15.18 L 15.70 23.05 L 12.00 23.05 Z" opacity="1.0"/>
    <path d="M 15.10 15.18 L 16.92 15.18 L 17.80 23.05 L 15.70 23.05 Z" opacity="0.84"/>
  </g>
</svg>