<svg xmlns="http://www.w3.org/2000/svg" width="256" height="256" viewBox="0 0 194 194" preserveAspectRatio="xMidYMid meet">
  <title>Neuralwatt</title>
  <path d="M175.222 193.305C185.107 193.305 193.12 185.292 193.12 175.407C193.12 165.523 185.107 157.51 175.222 157.51C165.337 157.51 157.324 165.523 157.324 175.407C157.324 185.292 165.337 193.305 175.222 193.305Z" fill="#D55934" />
  <path d="M17.8977 35.7955C27.7824 35.7955 35.7955 27.7824 35.7955 17.8977C35.7955 8.01309 27.7824 0 17.8977 0C8.01309 0 0 8.01309 0 17.8977C0 27.7824 8.01309 35.7955 17.8977 35.7955Z" fill="#D55934" />
  <path d="M96.7596 114.487C106.639 114.487 114.648 106.478 114.648 96.598C114.648 86.7185 106.639 78.7095 96.7596 78.7095C86.8801 78.7095 78.8711 86.7185 78.8711 96.598C78.8711 106.478 86.8801 114.487 96.7596 114.487Z" fill="#D55934" />
  <path d="M17.897 73.1881C26.7932 73.1881 34.005 65.9763 34.005 57.0801C34.005 48.1839 26.7932 40.9722 17.897 40.9722C9.00084 40.9722 1.78906 48.1839 1.78906 57.0801C1.78906 65.9763 9.00084 73.1881 17.897 73.1881Z" fill="#D55934" />
  <path d="M57.3814 73.1881C66.2776 73.1881 73.4893 65.9763 73.4893 57.0801C73.4893 48.1839 66.2776 40.9722 57.3814 40.9722C48.4852 40.9722 41.2734 48.1839 41.2734 57.0801C41.2734 65.9763 48.4852 73.1881 57.3814 73.1881Z" fill="#D55934" />
  <path d="M175.221 152.222C184.117 152.222 191.329 145.01 191.329 136.114C191.329 127.218 184.117 120.006 175.221 120.006C166.325 120.006 159.113 127.218 159.113 136.114C159.113 145.01 166.325 152.222 175.221 152.222Z" fill="#D55934" />
  <path d="M136.127 152.222C145.024 152.222 152.235 145.01 152.235 136.114C152.235 127.218 145.024 120.006 136.127 120.006C127.231 120.006 120.02 127.218 120.02 136.114C120.02 145.01 127.231 152.222 136.127 152.222Z" fill="#D55934" />
  <path d="M175.223 110.889C183.126 110.889 189.532 104.483 189.532 96.58C189.532 88.6774 183.126 82.271 175.223 82.271C167.32 82.271 160.914 88.6774 160.914 96.58C160.914 104.483 167.32 110.889 175.223 110.889Z" fill="#D55934" />
  <path d="M175.223 73.1541C183.126 73.1541 189.532 66.7478 189.532 58.8451C189.532 50.9425 183.126 44.5361 175.223 44.5361C167.32 44.5361 160.914 50.9425 160.914 58.8451C160.914 66.7478 167.32 73.1541 175.223 73.1541Z" fill="#D55934" />
  <path d="M175.223 32.2064C183.126 32.2064 189.532 25.8 189.532 17.8974C189.532 9.99473 183.126 3.58838 175.223 3.58838C167.32 3.58838 160.914 9.99473 160.914 17.8974C160.914 25.8 167.32 32.2064 175.223 32.2064Z" fill="#D55934" />
  <path d="M17.8988 110.535C25.8015 110.535 32.2078 104.128 32.2078 96.2255C32.2078 88.3229 25.8015 81.9165 17.8988 81.9165C9.9962 81.9165 3.58984 88.3229 3.58984 96.2255C3.58984 104.128 9.9962 110.535 17.8988 110.535Z" fill="#D55934" />
  <path d="M17.8988 150.423C25.8015 150.423 32.2078 144.016 32.2078 136.114C32.2078 128.211 25.8015 121.805 17.8988 121.805C9.9962 121.805 3.58984 128.211 3.58984 136.114C3.58984 144.016 9.9962 150.423 17.8988 150.423Z" fill="#D55934" />
  <path d="M17.8988 189.368C25.8015 189.368 32.2078 182.962 32.2078 175.059C32.2078 167.157 25.8015 160.75 17.8988 160.75C9.9962 160.75 3.58984 167.157 3.58984 175.059C3.58984 182.962 9.9962 189.368 17.8988 189.368Z" fill="#D55934" />
  <path opacity="0.5" d="M57.3801 108.025C63.8938 108.025 69.1742 102.744 69.1742 96.2307C69.1742 89.7169 63.8938 84.4365 57.3801 84.4365C50.8664 84.4365 45.5859 89.7169 45.5859 96.2307C45.5859 102.744 50.8664 108.025 57.3801 108.025Z" fill="#D55934" />
  <path opacity="0.5" d="M136.129 108.383C142.637 108.383 147.914 103.107 147.914 96.598C147.914 90.0893 142.637 84.813 136.129 84.813C129.62 84.813 124.344 90.0893 124.344 96.598C124.344 103.107 129.62 108.383 136.129 108.383Z" fill="#D55934" />
  <path opacity="0.5" d="M96.7618 68.88C103.083 68.88 108.207 63.7557 108.207 57.4346C108.207 51.1135 103.083 45.9893 96.7618 45.9893C90.4407 45.9893 85.3164 51.1135 85.3164 57.4346C85.3164 63.7557 90.4407 68.88 96.7618 68.88Z" fill="#D55934" />
  <path opacity="0.5" d="M96.7604 147.55C103.076 147.55 108.197 142.429 108.197 136.113C108.197 129.797 103.076 124.677 96.7604 124.677C90.4444 124.677 85.3242 129.797 85.3242 136.113C85.3242 142.429 90.4444 147.55 96.7604 147.55Z" fill="#D55934" />
  <path opacity="0.5" d="M57.3805 28.2566C63.0984 28.2566 67.7336 23.6213 67.7336 17.9034C67.7336 12.1856 63.0984 7.55029 57.3805 7.55029C51.6626 7.55029 47.0273 12.1856 47.0273 17.9034C47.0273 23.6213 51.6626 28.2566 57.3805 28.2566Z" fill="#D55934" />
  <path opacity="0.5" d="M136.129 185.751C141.842 185.751 146.473 181.12 146.473 175.407C146.473 169.695 141.842 165.063 136.129 165.063C130.416 165.063 125.785 169.695 125.785 175.407C125.785 181.12 130.416 185.751 136.129 185.751Z" fill="#D55934" />
  <path opacity="0.3" d="M136.128 66.3558C141.055 66.3558 145.05 62.3616 145.05 57.4345C145.05 52.5074 141.055 48.5132 136.128 48.5132C131.201 48.5132 127.207 52.5074 127.207 57.4345C127.207 62.3616 131.201 66.3558 136.128 66.3558Z" fill="#D55934" />
  <path opacity="0.3" d="M57.3809 144.678C62.3029 144.678 66.293 140.688 66.293 135.766C66.293 130.844 62.3029 126.854 57.3809 126.854C52.4589 126.854 48.4688 130.844 48.4688 135.766C48.4688 140.688 52.4589 144.678 57.3809 144.678Z" fill="#D55934" />
  <path opacity="0.3" d="M96.7594 181.456C100.1 181.456 102.808 178.748 102.808 175.407C102.808 172.067 100.1 169.359 96.7594 169.359C93.4189 169.359 90.7109 172.067 90.7109 175.407C90.7109 178.748 93.4189 181.456 96.7594 181.456Z" fill="#D55934" />
  <path opacity="0.3" d="M96.7606 24.3005C100.091 24.3005 102.791 21.6008 102.791 18.2704C102.791 14.94 100.091 12.2402 96.7606 12.2402C93.4303 12.2402 90.7305 14.94 90.7305 18.2704C90.7305 21.6008 93.4303 24.3005 96.7606 24.3005Z" fill="#D55934" />
  <path opacity="0.1" d="M57.3813 178.593C59.3329 178.593 60.915 177.011 60.915 175.06C60.915 173.108 59.3329 171.526 57.3813 171.526C55.4297 171.526 53.8477 173.108 53.8477 175.06C53.8477 177.011 55.4297 178.593 57.3813 178.593Z" fill="#D55934" />
  <path opacity="0.1" d="M136.127 21.7383C138.064 21.7383 139.633 20.1686 139.633 18.2322C139.633 16.2958 138.064 14.7261 136.127 14.7261C134.191 14.7261 132.621 16.2958 132.621 18.2322C132.621 20.1686 134.191 21.7383 136.127 21.7383Z" fill="#D55934" />
</svg>
