<svg xmlns="http://www.w3.org/2000/svg" width="256" height="256" viewBox="0 0 45 40" preserveAspectRatio="xMidYMid meet">
  <title>Kong</title>
  <path fill-rule="evenodd" clip-rule="evenodd" d="M13.5449 34.3219L14.6552 32.9579H22.7757L27.0263 38.2235L26.2967 39.9999H15.7654L16.0191 38.2235L13.5449 34.3219Z" fill="#159ECB"/>
  <path fill-rule="evenodd" clip-rule="evenodd" d="M16.5898 16.0508L20.3963 9.3894H24.8055L44.6628 32.8628L43.1085 40H34.6073L35.1466 38.0016L16.5898 16.0508Z" fill="#0EB399"/>
  <path fill-rule="evenodd" clip-rule="evenodd" d="M21.126 7.70816L22.9341 4.37747L28.2632 0L37.4622 7.26407L36.2886 8.50118L37.8746 10.7216V13.1324L33.3068 16.8755L25.5986 7.70816H21.126Z" fill="#3DB664"/>
  <path fill-rule="evenodd" clip-rule="evenodd" d="M6.59794 22.9341H9.10389L15.5749 17.383L24.1396 27.5654L21.7288 31.3084H13.7986L8.34259 38.3822L7.10547 39.9999H0V31.3084L6.59794 22.9341Z" fill="#17BDCB"/>
</svg>
