<svg
  xmlns="http://www.w3.org/2000/svg"
  width="256"
  height="256"
  viewBox="0 0 84.62 84.62"
  preserveAspectRatio="xMidYMid meet"
>
  <circle fill="#214497" cx="42.31" cy="42.31" r="42.31" />
  <path
    fill="#ffffff"
    d="M57.58,58.73,48.85,50a3.91,3.91,0,0,1,0-5.53h0L61.78,31.54a1.13,1.13,0,0,0,0-1.6L57,25.16a1.13,1.13,0,0,0-1.6,0L52.5,28.07l-2-2,2.91-2.91a3.9,3.9,0,0,1,5.52,0h0L63.74,28a3.92,3.92,0,0,1,0,5.53L50.8,46.43a1.13,1.13,0,0,0,0,1.6l8.74,8.73Z"
  />
  <rect
    fill="#ffffff"
    x="56.92"
    y="49.8"
    width="7.56"
    height="20.16"
    rx="2.52"
    transform="translate(-24.57 60.46) rotate(-45)"
  />
  <rect
    fill="#ffffff"
    x="19.79"
    y="39.46"
    width="5.81"
    height="5.81"
    transform="translate(-23.31 28.46) rotate(-45)"
  />
  <rect
    fill="#ffc40c"
    x="20.82"
    y="32.6"
    width="37.8"
    height="12.6"
    rx="2.52"
    transform="translate(-15.88 39.48) rotate(-45)"
  />
  <rect
    fill="#ffc40c"
    x="23.9"
    y="35.36"
    width="5.81"
    height="5.81"
    transform="translate(-19.2 30.16) rotate(-45)"
  />
  <rect
    fill="#ffffff"
    x="27.95"
    y="31.31"
    width="5.81"
    height="5.81"
    transform="translate(-15.15 31.84) rotate(-45)"
  />
  <rect
    fill="#ffc40c"
    x="32.06"
    y="27.2"
    width="5.81"
    height="5.81"
    transform="translate(-11.04 33.54) rotate(-45)"
  />
  <rect
    fill="#214497"
    x="36.17"
    y="23.09"
    width="5.81"
    height="5.81"
    transform="translate(-6.94 35.24) rotate(-45)"
  />
  <rect
    fill="#ffffff"
    x="40.27"
    y="18.98"
    width="5.81"
    height="5.81"
    transform="translate(-2.83 36.94) rotate(-45)"
  />
  <rect
    fill="#ffc40c"
    x="15.69"
    y="35.36"
    width="5.81"
    height="5.81"
    transform="translate(-21.61 24.35) rotate(-45)"
  />
  <rect
    fill="#ffc40c"
    x="23.85"
    y="27.2"
    width="5.81"
    height="5.81"
    transform="translate(-13.45 27.73) rotate(-45)"
  />
  <rect
    fill="#ffc40c"
    x="32.06"
    y="18.98"
    width="5.81"
    height="5.81"
    transform="translate(-5.24 31.13) rotate(-45)"
  />
  <rect
    fill="#ffc40c"
    x="36.17"
    y="14.87"
    width="5.81"
    height="5.81"
    transform="translate(-1.13 32.83) rotate(-45)"
  />
  <rect
    fill="#ffc40c"
    x="19.74"
    y="23.09"
    width="5.81"
    height="5.81"
    transform="translate(-11.75 23.62) rotate(-45)"
  />
  <rect
    fill="#ffc40c"
    x="32.06"
    y="10.76"
    width="5.81"
    height="5.81"
    transform="translate(0.58 28.73) rotate(-45)"
  />
  <rect
    fill="#ffc40c"
    x="7.47"
    y="27.14"
    width="5.81"
    height="5.81"
    transform="translate(-18.2 16.13) rotate(-45)"
  />
  <rect
    fill="#ffc40c"
    x="19.73"
    y="14.87"
    width="5.81"
    height="5.81"
    transform="translate(-5.94 21.21) rotate(-45)"
  />
  <path
    fill="#ffffff"
    d="M59.67,53.52l-1-1a3.78,3.78,0,0,0-5.35,0h0a3.78,3.78,0,0,0,0,5.35h0l1,.95a2.52,2.52,0,0,1,0-3.56l1.78-1.78a2.51,2.51,0,0,1,3.56,0Z"
  />
  <path
    fill="#214497"
    d="M30.81,56.79a3.63,3.63,0,0,1-2.57-1.07l-5.36-5.36a3.63,3.63,0,0,1,0-5.13h0L46.05,22.06a3.63,3.63,0,0,1,5.13,0h0l5.35,5.35a3.63,3.63,0,0,1,0,5.14L33.37,55.73A3.62,3.62,0,0,1,30.81,56.79ZM48.62,23.23a1.41,1.41,0,0,0-1,.41L24.46,46.82a1.41,1.41,0,0,0,0,2h0l5.36,5.35a1.41,1.41,0,0,0,2,0h0L55,31a1.41,1.41,0,0,0,0-2h0l-5.35-5.36A1.41,1.41,0,0,0,48.62,23.23Z"
  />
  <path
    fill="#ffffff"
    d="M65.15,69.75a3.61,3.61,0,0,1-2.57-1.07L51.89,58a3.65,3.65,0,0,1,0-5.14l1.78-1.78a3.63,3.63,0,0,1,5.14,0L69.5,61.77a3.63,3.63,0,0,1,0,5.14L67.72,68.7A3.57,3.57,0,0,1,65.15,69.75Zm-8.9-17.51a1.41,1.41,0,0,0-1,.41l-1.78,1.78a1.41,1.41,0,0,0,0,2h0l10.69,10.7a1.41,1.41,0,0,0,2,0h0l1.78-1.78a1.42,1.42,0,0,0,0-2h0L57.24,52.66A1.38,1.38,0,0,0,56.25,52.24Z"
  />
</svg>
