<svg xmlns="http://www.w3.org/2000/svg" width="256" height="256" viewBox="0 0 190 230" preserveAspectRatio="xMidYMid meet">
  <title>Kuma</title>
  <g fill="#290B53" fill-rule="nonzero">
    <path d="M169.17 67.71a1.52 1.52 0 01.24-1.44c6.06-7.65 11.56-16.45 11.56-23.2 0-15-8.56-27.19-27.19-27.19-9.23 0-16 3-20.45 7.83a1.56 1.56 0 01-1.63.44A138.83 138.83 0 00109.94 19a1.52 1.52 0 00-1.67 1.9c1.54 5.77 10.78 42.43 18.22 70.34 4.5 16.89-7.16 33.48-24.64 33.43H91.03c-17.66 0-28.38-16.65-24.31-33.25C73.59 63.37 83 27 84.53 21a1.51 1.51 0 00-1.65-1.89 118.92 118.92 0 00-25.21 5.77 1.55 1.55 0 01-1.71-.47c-4.45-5.23-11.39-8.5-21-8.5-18.63 0-27.19 12.17-27.19 27.19 0 7.87 7.48 18.54 14.6 26.9.343.412.449.971.28 1.48l-12.12 35.2a.36.36 0 000 .11c-.32 1.23-5 22 30.56 55.06 10.64 9.91 47.71 45.62 54.37 52a1.5 1.5 0 002.07 0c6.85-6.37 45.3-42.06 56-52 38.42-35.83 29.27-55.17 29.27-55.17l-13.63-38.97z"/>
    <path d="M103.72 101.36H89.24A4.34 4.34 0 0184.9 97l-1.8-17.83a4.34 4.34 0 014.35-4.34h18a4.34 4.34 0 014.35 4.34L108.07 97a4.34 4.34 0 01-4.35 4.36z"/>
  </g>
</svg>
